<?xml version="1.0" encoding="UTF-8" ?>
<!DOCTYPE svg PUBLIC "-//W3C//DTD SVG 1.1//EN" "http://www.w3.org/Graphics/SVG/1.1/DTD/svg11.dtd">
<svg width="1265pt" height="791pt" viewBox="0 0 1265 791" version="1.1" xmlns="http://www.w3.org/2000/svg">
<path fill="#231f20" d=" M 0.00 0.00 L 790.04 0.00 C 776.97 9.07 763.23 17.12 749.95 25.86 C 514.32 175.94 278.68 326.02 43.07 476.12 C 28.67 485.16 14.46 494.49 0.00 503.41 L 0.00 0.00 Z" />
<path fill="#a2d49e" d=" M 790.04 0.00 L 1015.08 0.00 C 676.73 217.27 338.32 434.47 0.00 651.78 L 0.00 503.41 C 14.46 494.49 28.67 485.16 43.07 476.12 C 278.68 326.02 514.32 175.94 749.95 25.86 C 763.23 17.12 776.97 9.07 790.04 0.00 Z" />
<path fill="#c7c12f" d=" M 1015.08 0.00 L 1244.12 0.00 C 833.53 263.71 422.84 527.27 12.26 791.00 L 0.00 791.00 L 0.00 651.78 C 338.32 434.47 676.73 217.27 1015.08 0.00 Z" />
<path fill="#f26247" d=" M 1244.12 0.00 L 1265.00 0.00 L 1265.00 150.40 C 932.57 364.03 599.93 577.36 267.50 791.00 L 12.26 791.00 C 422.84 527.27 833.53 263.71 1244.12 0.00 Z" />
<path fill="#ec2045" d=" M 267.50 791.00 C 599.93 577.36 932.57 364.03 1265.00 150.40 L 1265.00 332.32 C 1260.70 333.47 1257.31 336.41 1253.59 338.68 C 1030.33 482.02 807.08 625.39 583.81 768.71 C 572.56 776.27 560.74 782.99 549.80 791.00 L 267.50 791.00 Z" />
<path fill="#231f20" d=" M 1253.59 338.68 C 1257.31 336.41 1260.70 333.47 1265.00 332.32 L 1265.00 791.00 L 549.80 791.00 C 560.74 782.99 572.56 776.27 583.81 768.71 C 807.08 625.39 1030.33 482.02 1253.59 338.68 Z" />
</svg>
